<svg width="60" height="60" viewBox="0 0 60 60" fill="none" xmlns="http://www.w3.org/2000/svg">
<path d="M11.7925 23.0822C15.2096 22.2617 18.7768 22.3014 22.1748 23.1979C25.5727 24.0943 28.6953 25.8195 31.2629 28.2189C33.8305 30.6183 35.763 33.617 36.8872 36.9465C38.0115 40.2761 38.2925 43.8324 37.705 47.2972C37.793 47.2094 37.8875 47.1284 37.9875 47.0547C38.6875 46.5222 39.5625 46.3247 41.3125 45.9297L42.9 45.5697C49.05 44.1772 52.125 43.4822 52.8575 41.1297C53.5875 38.7797 51.4925 36.3272 47.3 31.4247L46.215 30.1572C45.025 28.7647 44.4275 28.0672 44.16 27.2072C43.8925 26.3447 43.9825 25.4147 44.1625 23.5572L44.3275 21.8647C44.96 15.3222 45.2775 12.0522 43.3625 10.5997C41.4475 9.14718 38.5675 10.4697 32.8125 13.1222L31.32 13.8072C29.685 14.5622 28.8675 14.9372 28 14.9372C27.1325 14.9372 26.315 14.5622 24.6775 13.8072L23.19 13.1222C17.4325 10.4722 14.5525 9.14719 12.64 10.5972C10.7225 12.0522 11.04 15.3222 11.6725 21.8647L11.7925 23.0822Z" fill="#D96E56"/>
<path d="M22.3328 28.5625C24.1641 28.5625 25.675 29.925 25.9125 31.6906C26.7056 31.7239 27.4697 31.9979 28.1032 32.4763C28.7366 32.9547 29.2093 33.6147 29.4582 34.3685C29.7071 35.1222 29.7205 35.9339 29.4966 36.6954C29.2726 37.457 28.822 38.1322 28.2047 38.6313C28.8873 39.0508 29.451 39.6384 29.8419 40.3379C30.2328 41.0373 30.4378 41.8253 30.4375 42.6266V43.0172C30.4374 44.0552 30.0615 45.0581 29.3794 45.8405C28.6972 46.6229 27.7549 47.1319 26.7266 47.2734L26.5953 47.6969C26.3472 48.4916 25.8517 49.1862 25.1811 49.6795C24.5104 50.1728 23.6997 50.4389 22.8672 50.4391H22.625C22.0186 50.4391 21.4205 50.2979 20.8781 50.0267C20.3357 49.7555 19.8639 49.3617 19.5 48.8766C18.7875 49.825 17.6531 50.4391 16.375 50.4391H16.1328C15.3003 50.4389 14.4896 50.1728 13.8189 49.6795C13.1483 49.1862 12.6528 48.4916 12.4047 47.6969L12.2734 47.2734C11.2449 47.1319 10.3023 46.6226 9.62014 45.8399C8.93795 45.0572 8.56225 44.0539 8.56251 43.0156V42.625C8.56251 40.9344 9.45626 39.4547 10.7953 38.6297C10.178 38.1307 9.72739 37.4554 9.50345 36.6939C9.27952 35.9323 9.29291 35.1206 9.54184 34.3669C9.79077 33.6132 10.2634 32.9531 10.8968 32.4747C11.5303 31.9964 12.2944 31.7223 13.0875 31.6891C13.1832 30.9873 13.483 30.3292 13.9496 29.7964C14.4162 29.2636 15.029 28.8797 15.712 28.6922C16.3949 28.5048 17.1179 28.5222 17.7911 28.7422C18.4643 28.9622 19.058 29.3751 19.4984 29.9297C19.8359 29.5021 20.2661 29.1569 20.7566 28.92C21.2471 28.6832 21.785 28.5609 22.3297 28.5625H22.3328ZM16.6688 30.125C15.5359 30.125 14.6188 31.0437 14.6188 32.175V32.4688C14.6188 32.676 14.5364 32.8747 14.3899 33.0212C14.2434 33.1677 14.0447 33.25 13.8375 33.25H13.2516C12.6405 33.2502 12.0537 33.489 11.6161 33.9156C11.1786 34.3421 10.925 34.9227 10.9093 35.5336C10.8936 36.1444 11.1171 36.7373 11.5321 37.1857C11.9472 37.6342 12.521 37.9028 13.1313 37.9344L13.2516 37.9375H14.0328C14.24 37.9375 14.4387 38.0198 14.5852 38.1663C14.7318 38.3128 14.8141 38.5115 14.8141 38.7188C14.8141 38.926 14.7318 39.1247 14.5852 39.2712C14.4387 39.4177 14.24 39.5 14.0328 39.5H13.2516L13.0906 39.5031C12.2903 39.5444 11.5364 39.8916 10.9848 40.4729C10.4331 41.0542 10.1259 41.8252 10.1266 42.6266V43.0172C10.1266 44.5266 11.35 45.7516 12.8609 45.7516C13.1609 45.7516 13.4297 45.9219 13.5594 46.1844L13.6063 46.2984L13.8984 47.2297C14.0471 47.7069 14.3443 48.1241 14.7469 48.4204C15.1494 48.7167 15.6361 48.8765 16.1359 48.8766H16.3781C16.9997 48.8766 17.5959 48.6296 18.0354 48.1901C18.475 47.7506 18.7219 47.1544 18.7219 46.5328V32.175C18.7219 31.0422 17.8031 30.125 16.6719 30.125H16.6688ZM22.3328 30.125C21.2 30.125 20.2828 31.0437 20.2828 32.175V46.5328C20.2828 47.1544 20.5298 47.7506 20.9693 48.1901C21.4088 48.6296 22.005 48.8766 22.6266 48.8766H22.8688C23.8938 48.8766 24.8 48.2078 25.1063 47.2313L25.3984 46.2984L25.4453 46.1828C25.5103 46.0532 25.61 45.9442 25.7333 45.8681C25.8567 45.7919 25.9988 45.7516 26.1438 45.7516C26.869 45.7516 27.5645 45.4635 28.0773 44.9507C28.5901 44.4379 28.8781 43.7424 28.8781 43.0172V42.625C28.8788 41.8236 28.5716 41.0526 28.0199 40.4713C27.4683 39.89 26.7144 39.5428 25.9141 39.5016L25.7531 39.5H24.9719C24.7647 39.5 24.566 39.4177 24.4195 39.2712C24.2729 39.1247 24.1906 38.926 24.1906 38.7188C24.1906 38.5115 24.2729 38.3128 24.4195 38.1663C24.566 38.0198 24.7647 37.9375 24.9719 37.9375H25.7531L25.8734 37.9344C26.4837 37.9028 27.0575 37.6342 27.4726 37.1857C27.8876 36.7373 28.1111 36.1444 28.0954 35.5336C28.0797 34.9227 27.8261 34.3421 27.3886 33.9156C26.951 33.489 26.3642 33.2502 25.7531 33.25H25.1672C24.96 33.25 24.7613 33.1677 24.6148 33.0212C24.4683 32.8747 24.3859 32.676 24.3859 32.4688V32.175C24.3859 31.0422 23.4672 30.125 22.3359 30.125H22.3328Z" fill="#FF6F43" fill-opacity="0.5"/>
</svg>
