<svg width="100" height="100" viewBox="0 0 100 100" fill="none" xmlns="http://www.w3.org/2000/svg">
<path d="M19.6541 38.4703C25.3493 37.1028 31.2947 37.169 36.9579 38.6631C42.6212 40.1572 47.8255 43.0325 52.1048 47.0315C56.3841 51.0305 59.6049 56.0283 61.4787 61.5775C63.3525 67.1267 63.8208 73.054 62.8416 78.8286C62.9883 78.6824 63.1457 78.5473 63.3125 78.4245C64.4791 77.537 65.9375 77.2078 68.8541 76.5495L71.5 75.9495C81.75 73.6286 86.875 72.4703 88.0958 68.5495C89.3125 64.6328 85.8208 60.5453 78.8333 52.3745L77.025 50.262C75.0416 47.9411 74.0458 46.7786 73.6 45.3453C73.1541 43.9078 73.3041 42.3578 73.6041 39.262L73.8791 36.4411C74.9333 25.537 75.4625 20.087 72.2708 17.6661C69.0791 15.2453 64.2791 17.4495 54.6875 21.8703L52.2 23.012C49.475 24.2703 48.1125 24.8953 46.6666 24.8953C45.2208 24.8953 43.8583 24.2703 41.1291 23.012L38.65 21.8703C29.0541 17.4536 24.2541 15.2453 21.0666 17.662C17.8708 20.087 18.4 25.537 19.4541 36.4411L19.6541 38.4703Z" fill="#D96E56"/>
<path d="M37.2214 52.9375C40.2735 52.9375 42.7917 55.2084 43.1875 58.1511C44.5094 58.2065 45.7829 58.6632 46.8386 59.4605C47.8944 60.2579 48.6821 61.3579 49.097 62.6141C49.5119 63.8704 49.5342 65.2232 49.161 66.4924C48.7877 67.7617 48.0367 68.8871 47.0079 69.7188C48.1455 70.4181 49.085 71.3974 49.7365 72.5631C50.388 73.7289 50.7298 75.0422 50.7292 76.3776V77.0287C50.729 78.7587 50.1026 80.4302 48.9656 81.7342C47.8287 83.0382 46.2582 83.8865 44.5443 84.1224L44.3256 84.8282C43.9121 86.1527 43.0862 87.3104 41.9685 88.1326C40.8507 88.9547 39.4996 89.3982 38.112 89.3985H37.7084C36.6977 89.3985 35.7008 89.1631 34.7968 88.7111C33.8928 88.2591 33.1065 87.6029 32.5 86.7943C31.3125 88.375 29.4219 89.3985 27.2917 89.3985H26.8881C25.5005 89.3982 24.1493 88.9547 23.0316 88.1326C21.9138 87.3104 21.088 86.1527 20.6745 84.8282L20.4558 84.1224C18.7415 83.8865 17.1706 83.0377 16.0336 81.7332C14.8966 80.4287 14.2704 78.7565 14.2709 77.0261V76.375C14.2709 73.5573 15.7605 71.0912 17.9922 69.7162C16.9634 68.8845 16.2123 67.7591 15.8391 66.4898C15.4659 65.2206 15.4882 63.8678 15.9031 62.6115C16.318 61.3553 17.1057 60.2553 18.1614 59.4579C19.2172 58.6606 20.4907 58.2039 21.8125 58.1485C21.972 56.9789 22.4717 55.882 23.2493 54.9941C24.027 54.1061 25.0484 53.4661 26.1866 53.1538C27.3249 52.8414 28.5299 52.8703 29.6518 53.237C30.7738 53.6037 31.7633 54.2919 32.4974 55.2162C33.0599 54.5036 33.7769 53.9282 34.5944 53.5334C35.4119 53.1387 36.3084 52.9349 37.2162 52.9375H37.2214ZM27.7813 55.5417C25.8933 55.5417 24.3646 57.0729 24.3646 58.9584V59.4479C24.3646 59.7933 24.2274 60.1245 23.9833 60.3687C23.7391 60.6128 23.4079 60.75 23.0625 60.75H22.086C21.0675 60.7503 20.0895 61.1484 19.3603 61.8593C18.631 62.5702 18.2083 63.5379 18.1821 64.556C18.156 65.5741 18.5285 66.5622 19.2203 67.3096C19.912 68.057 20.8684 68.5047 21.8855 68.5573L22.086 68.5625H23.3881C23.7334 68.5625 24.0646 68.6997 24.3088 68.9439C24.553 69.1881 24.6901 69.5193 24.6901 69.8646C24.6901 70.2099 24.553 70.5411 24.3088 70.7853C24.0646 71.0295 23.7334 71.1667 23.3881 71.1667H22.086L21.8177 71.1719C20.4839 71.2407 19.2274 71.8193 18.308 72.7881C17.3886 73.757 16.8765 75.042 16.8776 76.3776V77.0287C16.8776 79.5443 18.9167 81.586 21.4349 81.586C21.9349 81.586 22.3829 81.8698 22.599 82.3073L22.6771 82.4974L23.1641 84.0495C23.4118 84.8449 23.9073 85.5402 24.5782 86.034C25.2491 86.5278 26.0602 86.7942 26.8933 86.7943H27.2969C28.3329 86.7943 29.3265 86.3828 30.0591 85.6502C30.7916 84.9176 31.2032 83.9241 31.2032 82.8881V58.9584C31.2032 57.0703 29.6719 55.5417 27.7865 55.5417H27.7813ZM37.2214 55.5417C35.3334 55.5417 33.8047 57.0729 33.8047 58.9584V82.8881C33.8047 83.9241 34.2163 84.9176 34.9488 85.6502C35.6814 86.3828 36.675 86.7943 37.711 86.7943H38.1146C39.823 86.7943 41.3334 85.6797 41.8438 84.0521L42.3308 82.4974L42.4089 82.3047C42.5171 82.0887 42.6833 81.9071 42.8889 81.7801C43.0945 81.6532 43.3313 81.586 43.573 81.586C44.7816 81.586 45.9408 81.1058 46.7954 80.2512C47.6501 79.3965 48.1302 78.2373 48.1302 77.0287V76.375C48.1314 75.0394 47.6193 73.7544 46.6999 72.7855C45.7805 71.8167 44.524 71.2381 43.1901 71.1693L42.9219 71.1667H41.6198C41.2745 71.1667 40.9433 71.0295 40.6991 70.7853C40.4549 70.5411 40.3177 70.2099 40.3177 69.8646C40.3177 69.5193 40.4549 69.1881 40.6991 68.9439C40.9433 68.6997 41.2745 68.5625 41.6198 68.5625H42.9219L43.1224 68.5573C44.1395 68.5047 45.0958 68.057 45.7876 67.3096C46.4794 66.5622 46.8519 65.5741 46.8258 64.556C46.7996 63.5379 46.3769 62.5702 45.6476 61.8593C44.9184 61.1484 43.9404 60.7503 42.9219 60.75H41.9454C41.6 60.75 41.2688 60.6128 41.0246 60.3687C40.7805 60.1245 40.6433 59.7933 40.6433 59.4479V58.9584C40.6433 57.0703 39.112 55.5417 37.2266 55.5417H37.2214Z" fill="#FFAE7B" fill-opacity="0.8"/>
</svg>
